  <svg
                viewBox="0 0 200 187"
                xmlns="http://www.w3.org/2000/svg"
                xmlns:xlink="http://www.w3.org/1999/xlink"
              >
                <mask id="mask0" mask-type="alpha">
                  <path
                    fill="#FF0066"
                    d="M64.3,-18.3C71.9,2.4,58.6,32.4,39.1,44.4C19.5,56.4,-6.3,50.3,-25,36.3C-43.6,22.3,-55,0.4,-49.7,-17.3C-44.3,-35,-22.1,-48.4,3.1,-49.5C28.4,-50.5,56.8,-39.1,64.3,-18.3Z"
                    transform="translate(100 100)"
                  />
                </mask>
                <g mask="url(#mask0)">
                  <path
                    fill="#FF0066"
                    d="M64.3,-18.3C71.9,2.4,58.6,32.4,39.1,44.4C19.5,56.4,-6.3,50.3,-25,36.3C-43.6,22.3,-55,0.4,-49.7,-17.3C-44.3,-35,-22.1,-48.4,3.1,-49.5C28.4,-50.5,56.8,-39.1,64.3,-18.3Z"
                    transform="translate(100 100)"
                  />
                  <image
                    x="25"
                    y="18"
                    href=""
                  />
                </g>
              </svg>